<mxfile host="app.diagrams.net" modified="2023-09-06T16:56:06.429Z" agent="Mozilla/5.0 (X11; Linux x86_64) AppleWebKit/537.36 (KHTML, like Gecko) Chrome/116.0.0.0 Safari/537.36" version="21.7.2" etag="75JRx-IoV7xOklqO-Pom" type="github">
  <diagram name="PÃ¡gina-1" id="Tre0BvPx5lJJjSw6fNlJ">
    <mxGraphModel>
      <root>
        <mxCell id="0" />
        <mxCell id="1" parent="0" />
      </root>
    </mxGraphModel>
  </diagram>
</mxfile>
